<svg width="362" height="276" viewBox="0 0 362 276" fill="none" xmlns="http://www.w3.org/2000/svg">
<path fill-rule="evenodd" clip-rule="evenodd" d="M204.578 1.58359C136.066 8.60195 31.7933 50.2662 46.387 64.8599C50.9545 69.4274 53.4051 68.9829 65.1024 61.4075C136.066 15.3977 270.083 -5.5464 306.957 23.6411C315.535 30.4365 315.424 30.7718 304.172 29.6578C267.298 26.2038 230.201 33.4455 167.37 56.283C33.7984 104.743 -38.0562 185.732 21.4328 221.38C52.6254 240.096 125.371 232.521 190.207 205.784C203.464 200.325 200.791 205.004 183.857 213.025C143.864 232.075 127.933 235.195 108.661 240.988L99.4144 238.983C86.0461 236.309 60.9806 239.762 35.6923 247.783C24.6634 251.236 36.0266 267.501 84.4865 259.257C89.7224 258.366 87.3829 260.371 74.683 267.278C64.6569 272.737 64.2113 273.294 68.2218 275.411C74.0146 278.53 101.642 266.945 112.114 256.919C116.348 252.797 118.687 251.682 125.705 249.788C183.969 234.526 273.648 185.063 321.997 140.614C367.449 98.8376 374.579 56.6161 339.375 38.6803C334.362 36.118 329.126 32.1075 323.779 26.6492C302.724 5.48268 257.829 -3.87513 204.578 1.58359ZM317.429 41.0209C334.028 47.4822 312.862 99.2844 280.443 131.814C208.923 203.334 35.3581 251.125 19.7617 203.779C2.27152 150.751 151.662 56.8389 278.215 40.0171C283.674 39.2373 315.09 40.0182 317.429 41.0209ZM346.616 57.2845C352.075 76.5571 340.155 101.178 315.201 126.801C308.294 133.931 303.392 130.923 307.291 126.244C346.951 77.4495 334.919 46.3682 335.031 45.477C338.818 46.1454 345.057 51.3802 346.616 57.2845Z" fill="black"/>
</svg>
